<svg width="14" height="14" viewBox="0 0 14 14" fill="none" xmlns="http://www.w3.org/2000/svg">
<path d="M6.5625 4.8125C6.5625 4.69647 6.60859 4.58519 6.69064 4.50314C6.77269 4.42109 6.88397 4.375 7 4.375C7.11603 4.375 7.22731 4.42109 7.30936 4.50314C7.39141 4.58519 7.4375 4.69647 7.4375 4.8125V6.5625H9.1875C9.30353 6.5625 9.41481 6.60859 9.49686 6.69064C9.57891 6.77269 9.625 6.88397 9.625 7C9.625 7.11603 9.57891 7.22731 9.49686 7.30936C9.41481 7.39141 9.30353 7.4375 9.1875 7.4375H7.4375V9.1875C7.4375 9.30353 7.39141 9.41481 7.30936 9.49686C7.22731 9.57891 7.11603 9.625 7 9.625C6.88397 9.625 6.77269 9.57891 6.69064 9.49686C6.60859 9.41481 6.5625 9.30353 6.5625 9.1875V7.4375H4.8125C4.69647 7.4375 4.58519 7.39141 4.50314 7.30936C4.42109 7.22731 4.375 7.11603 4.375 7C4.375 6.88397 4.42109 6.77269 4.50314 6.69064C4.58519 6.60859 4.69647 6.5625 4.8125 6.5625H6.5625V4.8125ZM13.125 7C13.125 10.3827 10.3827 13.125 7 13.125C3.61725 13.125 0.875 10.3827 0.875 7C0.875 3.61725 3.61725 0.875 7 0.875C10.3827 0.875 13.125 3.61725 13.125 7ZM12.25 7C12.25 4.10069 9.89931 1.75 7 1.75C4.10069 1.75 1.75 4.10069 1.75 7C1.75 9.89931 4.10069 12.25 7 12.25C9.89931 12.25 12.25 9.89931 12.25 7Z" fill="white"/>
</svg>
