<svg width="21" height="20" viewBox="0 0 21 20" fill="none" xmlns="http://www.w3.org/2000/svg">
<path d="M17.0625 1.25H5.25C4.9019 1.25 4.56806 1.3817 4.32192 1.61612C4.07578 1.85054 3.9375 2.16848 3.9375 2.5V5H2.625V6.25H3.9375V9.375H2.625V10.625H3.9375V13.75H2.625V15H3.9375V17.5C3.9375 17.8315 4.07578 18.1495 4.32192 18.3839C4.56806 18.6183 4.9019 18.75 5.25 18.75H17.0625C17.4106 18.75 17.7444 18.6183 17.9906 18.3839C18.2367 18.1495 18.375 17.8315 18.375 17.5V2.5C18.375 2.16848 18.2367 1.85054 17.9906 1.61612C17.7444 1.3817 17.4106 1.25 17.0625 1.25ZM17.0625 17.5H5.25V15H6.5625V13.75H5.25V10.625H6.5625V9.375H5.25V6.25H6.5625V5H5.25V2.5H17.0625V17.5Z" fill="#D1D1D1"/>
<path d="M9.1875 5H14.4375V6.25H9.1875V5ZM9.1875 9.375H14.4375V10.625H9.1875V9.375ZM9.1875 13.75H14.4375V15H9.1875V13.75Z" fill="#D1D1D1"/>
</svg>
