<svg width="21" height="18" viewBox="0 0 21 18" fill="none" xmlns="http://www.w3.org/2000/svg">
<path d="M19.0312 5.25H15.75V6.5H19.0312V10.25H14.4375V11.5H16.4062V12.8387C15.7876 12.9909 15.2485 13.3526 14.8899 13.8563C14.5313 14.3599 14.3779 14.9707 14.4584 15.5744C14.5389 16.178 14.8478 16.733 15.3272 17.1352C15.8066 17.5374 16.4236 17.7594 17.0625 17.7594C17.7014 17.7594 18.3184 17.5374 18.7978 17.1352C19.2772 16.733 19.5861 16.178 19.6666 15.5744C19.7471 14.9707 19.5937 14.3599 19.2351 13.8563C18.8765 13.3526 18.3374 12.9909 17.7188 12.8387V11.5H19.0312C19.3792 11.4995 19.7127 11.3676 19.9588 11.1333C20.2048 10.899 20.3432 10.5814 20.3438 10.25V6.5C20.3434 6.16858 20.205 5.85083 19.9589 5.61648C19.7129 5.38213 19.3792 5.25033 19.0312 5.25ZM18.375 15.25C18.375 15.4972 18.298 15.7389 18.1538 15.9445C18.0096 16.15 17.8046 16.3102 17.5648 16.4049C17.3249 16.4995 17.061 16.5242 16.8064 16.476C16.5518 16.4277 16.318 16.3087 16.1344 16.1339C15.9509 15.9591 15.8259 15.7363 15.7752 15.4939C15.7246 15.2514 15.7506 15.0001 15.8499 14.7716C15.9492 14.5432 16.1175 14.348 16.3333 14.2107C16.5492 14.0733 16.8029 14 17.0625 14C17.4104 14.0005 17.744 14.1324 17.99 14.3667C18.236 14.601 18.3745 14.9186 18.375 15.25ZM12.4688 2.75H9.1875V4H12.4688V7.75H7.875V9H9.84375V12.8387C9.22513 12.9909 8.686 13.3526 8.32742 13.8563C7.96883 14.3599 7.81542 14.9707 7.89592 15.5744C7.97643 16.178 8.28533 16.733 8.76472 17.1352C9.24412 17.5374 9.86109 17.7594 10.5 17.7594C11.1389 17.7594 11.7559 17.5374 12.2353 17.1352C12.7147 16.733 13.0236 16.178 13.1041 15.5744C13.1846 14.9707 13.0312 14.3599 12.6726 13.8563C12.314 13.3526 11.7749 12.9909 11.1562 12.8387V9H12.4688C12.8167 8.99967 13.1504 8.86787 13.3964 8.63352C13.6425 8.39917 13.7809 8.08142 13.7812 7.75V4C13.7809 3.66858 13.6425 3.35083 13.3964 3.11648C13.1504 2.88213 12.8167 2.75033 12.4688 2.75ZM11.8125 15.25C11.8125 15.4972 11.7355 15.7389 11.5913 15.9445C11.4471 16.15 11.2421 16.3102 11.0023 16.4049C10.7624 16.4995 10.4985 16.5242 10.2439 16.476C9.98934 16.4277 9.75548 16.3087 9.57192 16.1339C9.38837 15.9591 9.26336 15.7363 9.21272 15.4939C9.16208 15.2514 9.18807 15.0001 9.28741 14.7716C9.38675 14.5432 9.55497 14.348 9.77081 14.2107C9.98665 14.0733 10.2404 14 10.5 14C10.8479 14.0005 11.1815 14.1324 11.4275 14.3667C11.6735 14.601 11.812 14.9186 11.8125 15.25ZM5.90625 0.25H1.96875C1.62076 0.250331 1.28712 0.382133 1.04106 0.616482C0.79499 0.850831 0.656597 1.16858 0.65625 1.5V5.25C0.656597 5.58142 0.79499 5.89917 1.04106 6.13352C1.28712 6.36787 1.62076 6.49967 1.96875 6.5H3.28125V12.8387C2.66263 12.9909 2.1235 13.3526 1.76492 13.8563C1.40633 14.3599 1.25292 14.9707 1.33342 15.5744C1.41393 16.178 1.72283 16.733 2.20222 17.1352C2.68162 17.5374 3.29859 17.7594 3.9375 17.7594C4.57641 17.7594 5.19338 17.5374 5.67278 17.1352C6.15217 16.733 6.46107 16.178 6.54158 15.5744C6.62208 14.9707 6.46867 14.3599 6.11008 13.8563C5.7515 13.3526 5.21237 12.9909 4.59375 12.8387V6.5H5.90625C6.25424 6.49967 6.58788 6.36787 6.83394 6.13352C7.08001 5.89917 7.2184 5.58142 7.21875 5.25V1.5C7.2184 1.16858 7.08001 0.850831 6.83394 0.616482C6.58788 0.382133 6.25424 0.250331 5.90625 0.25ZM5.25 15.25C5.25 15.4972 5.17302 15.7389 5.0288 15.9445C4.88458 16.15 4.6796 16.3102 4.43977 16.4049C4.19994 16.4995 3.93604 16.5242 3.68144 16.476C3.42684 16.4277 3.19298 16.3087 3.00942 16.1339C2.82587 15.9591 2.70086 15.7363 2.65022 15.4939C2.59958 15.2514 2.62557 15.0001 2.72491 14.7716C2.82425 14.5432 2.99247 14.348 3.20831 14.2107C3.42415 14.0733 3.67791 14 3.9375 14C4.28549 14.0003 4.61913 14.1321 4.86519 14.3665C5.11126 14.6008 5.24965 14.9186 5.25 15.25ZM1.96875 5.25V1.5H5.90625L5.90756 5.25H1.96875Z" fill="#D1D1D1"/>
</svg>
