<svg width="15" height="12" viewBox="0 0 15 12" fill="none" xmlns="http://www.w3.org/2000/svg">
<path d="M10.3029 6.02531L14.1475 1.98829V10.0162L10.3029 6.02531ZM5.34897 6.70897L6.69903 8.1254C6.91091 8.34296 7.18717 8.47441 7.48906 8.47441H7.49969H7.49906H7.50781C7.81033 8.47441 8.08659 8.34221 8.30097 8.12314L8.2991 8.12465L9.64915 6.70822L13.7531 10.9681H1.24693L5.34897 6.70897ZM1.2413 1.03116H13.7606L7.7472 7.34353C7.67959 7.40817 7.59589 7.44331 7.50969 7.44325H7.50094H7.50156H7.49281C7.4063 7.44338 7.32233 7.40795 7.25468 7.34278L7.2553 7.34353L1.2413 1.03116ZM0.853161 1.98754L4.69707 6.02455L0.853161 10.0132V1.98754ZM14.3537 0.143532C14.2037 0.0528801 14.0275 0 13.8406 0H1.16192C0.980766 5.23022e-05 0.802099 0.0509995 0.640027 0.14882L0.646902 0.145042C0.452877 0.260707 0.289479 0.439644 0.175166 0.66164C0.0608529 0.883635 0.0001796 1.13984 0 1.40132L0 10.5964C0.000330891 10.9685 0.122788 11.3253 0.340502 11.5885C0.558216 11.8516 0.853404 11.9996 1.1613 12H13.8387C14.1466 11.9996 14.4418 11.8516 14.6595 11.5885C14.8772 11.3253 14.9997 10.9685 15 10.5964V1.40132C15 0.852125 14.7381 0.376204 14.3568 0.147309L14.35 0.143532H14.3537Z" fill="black"/>
</svg>
