<svg width="21" height="20" viewBox="0 0 21 20" fill="none" xmlns="http://www.w3.org/2000/svg">
<path d="M10.9284 0.164212C10.8042 0.0577932 10.6512 0 10.4937 0C10.3362 0 10.1832 0.0577932 10.059 0.164212L0 8.78362L0.8701 9.99287L2.1 8.93901V18.4615C2.10074 18.8693 2.24848 19.2601 2.51087 19.5485C2.77326 19.8368 3.12892 19.9992 3.5 20H17.5C17.8711 19.9992 18.2267 19.8368 18.4891 19.5485C18.7515 19.2601 18.8993 18.8693 18.9 18.4615V8.94593L20.1299 9.9998L21 8.79054L10.9284 0.164212ZM11.9 18.4615H9.1V12.3075H11.9V18.4615ZM13.3 18.4615V12.3075C13.2996 11.8996 13.152 11.5085 12.8895 11.2201C12.6271 10.9317 12.2712 10.7695 11.9 10.769H9.1C8.72881 10.7695 8.37293 10.9317 8.11046 11.2201C7.84799 11.5085 7.70037 11.8996 7.7 12.3075V18.4615H3.5V7.73975L10.5 1.74732L17.5 7.74744V18.4615H13.3Z" fill="white"/>
</svg>
