<svg width="17" height="17" viewBox="0 0 17 17" fill="none" xmlns="http://www.w3.org/2000/svg">
<path d="M12.4376 0.875V3.375C11.2248 3.375 10.0665 3.5825 8.98177 3.94375L8.63592 3.22625L9.22786 2.97438L8.69499 1.83188L6.29836 2.8475L6.83124 3.99L7.4363 3.73375L7.7723 4.425C7.0596 4.76617 6.38969 5.18298 5.77533 5.6675L5.25952 5.145L5.73661 4.7275L4.85002 3.805L2.91671 5.49688L3.80396 6.41938L4.29089 5.99188L4.81917 6.52187C4.18847 7.15887 3.64875 7.87231 3.21399 8.64375L2.50392 8.30938L2.79924 7.7575L1.6298 7.19062L0.440674 9.42L1.60945 9.98625L1.90936 9.4225L2.66077 9.77875C2.27195 10.7296 2.0391 11.7317 1.97039 12.75H0.62508V16.5H16.3751V0.875H12.4376ZM13.7501 2.125H15.0626V12.75H3.28289C3.61955 8.20438 7.57805 4.625 12.4376 4.625H13.7501V2.125ZM9.81258 6.47062C9.52331 6.47044 9.24207 6.56122 9.01253 6.72887C8.783 6.89653 8.61801 7.13168 8.5432 7.3978C8.46838 7.66392 8.48793 7.94613 8.5988 8.20058C8.70967 8.45504 8.90566 8.66751 9.15633 8.805V11.5H12.4376V10.25H10.4688V8.8025C10.7194 8.66526 10.9153 8.45302 11.0261 8.19877C11.137 7.94452 11.1565 7.66252 11.0816 7.39663C11.0068 7.13074 10.8418 6.89585 10.6123 6.7285C10.3828 6.56115 10.1016 6.47071 9.81258 6.47125V6.47062ZM1.93758 14H15.0626V15.25H1.93758V14Z" fill="#D1D1D1"/>
</svg>
