<svg width="19" height="16" viewBox="0 0 19 16" fill="none" xmlns="http://www.w3.org/2000/svg">
<path d="M5.4292 5.25L6.25975 0H1.94005L0.135099 4.5C0.0794488 4.66 0.0500488 4.826 0.0500488 5C0.0500488 6.104 1.25755 7 2.7496 7C4.1251 7 5.26225 6.236 5.4292 5.25ZM9.50005 7C10.991 7 12.1996 6.104 12.1996 5C12.1996 4.959 12.1964 4.918 12.1943 4.879L11.6599 0H7.3402L6.8047 4.875C6.80222 4.91663 6.80082 4.95831 6.8005 5C6.8005 6.104 8.00905 7 9.50005 7ZM14.75 8.046V12H4.25005V8.052C3.79015 8.21 3.28405 8.3 2.7496 8.3C2.54485 8.3 2.3464 8.277 2.15005 8.251V14.6C2.15005 15.37 2.8105 16 3.61795 16H15.38C16.1885 16 16.85 15.369 16.85 14.6V8.252C16.6516 8.28102 16.4513 8.29739 16.2505 8.301C15.7385 8.30051 15.2306 8.21419 14.75 8.046ZM18.866 4.5L17.059 0H12.7403L13.5698 5.242C13.7315 6.232 14.8687 7 16.2505 7C17.7415 7 18.95 6.104 18.95 5C18.95 4.826 18.9206 4.66 18.866 4.5Z" fill="#D1D1D1"/>
</svg>
