<svg width="21" height="20" viewBox="0 0 21 20" fill="none" xmlns="http://www.w3.org/2000/svg">
<path d="M20.1761 16.3216C19.6493 15.1989 18.8849 14.1792 17.9254 13.3191C16.9687 12.4566 15.8355 11.7689 14.5883 11.294C14.5771 11.2889 14.5659 11.2864 14.5548 11.2814C16.2945 10.1508 17.4255 8.30905 17.4255 6.23116C17.4255 2.78894 14.3258 0 10.5 0C6.67423 0 3.57451 2.78894 3.57451 6.23116C3.57451 8.30905 4.70549 10.1508 6.44524 11.2839C6.43407 11.2889 6.4229 11.2915 6.41173 11.2965C5.16067 11.7714 4.03808 12.4523 3.07465 13.3216C2.116 14.1823 1.35167 15.2019 0.823868 16.3241C0.305356 17.4227 0.0257107 18.6006 6.98301e-05 19.794C-0.000675511 19.8208 0.00455219 19.8475 0.015445 19.8724C0.0263379 19.8974 0.0426754 19.9202 0.063495 19.9394C0.0843145 19.9586 0.109195 19.9738 0.13667 19.9842C0.164145 19.9946 0.193659 20 0.223473 20H1.89899C2.02186 20 2.1196 19.9121 2.1224 19.804C2.17825 17.8643 3.04393 16.0477 4.57424 14.6709C6.15761 13.2462 8.26039 12.4623 10.5 12.4623C12.7396 12.4623 14.8424 13.2462 16.4258 14.6709C17.9561 16.0477 18.8218 17.8643 18.8776 19.804C18.8804 19.9146 18.9781 20 19.101 20H20.7765C20.8063 20 20.8359 19.9946 20.8633 19.9842C20.8908 19.9738 20.9157 19.9586 20.9365 19.9394C20.9573 19.9202 20.9737 19.8974 20.9846 19.8724C20.9954 19.8475 21.0007 19.8208 20.9999 19.794C20.972 18.593 20.6955 17.4246 20.1761 16.3216ZM10.5 10.5528C9.21823 10.5528 8.01185 10.103 7.10428 9.28643C6.1967 8.46985 5.69684 7.38442 5.69684 6.23116C5.69684 5.07789 6.1967 3.99246 7.10428 3.17588C8.01185 2.3593 9.21823 1.90955 10.5 1.90955C11.7818 1.90955 12.9881 2.3593 13.8957 3.17588C14.8033 3.99246 15.3032 5.07789 15.3032 6.23116C15.3032 7.38442 14.8033 8.46985 13.8957 9.28643C12.9881 10.103 11.7818 10.5528 10.5 10.5528Z" fill="white"/>
</svg>
